<svg xmlns="http://www.w3.org/2000/svg" viewBox="0 0 24 24" fill="#ffffff" aria-hidden="true">
  <path d="M19.5 5.5a15.2 15.2 0 0 0-3.85-1.2l-.18.35c-.08.15-.15.3-.22.46a13.8 13.8 0 0 0-4.5 0l-.22-.46-.18-.35A15.2 15.2 0 0 0 6.5 5.5C4.05 9.17 3.38 12.75 3.7 16.27a15.4 15.4 0 0 0 4.73 2.4l1-1.63c-.55-.2-1.08-.46-1.58-.77l.37-.29c3.04 1.43 6.53 1.43 9.57 0 .12.1.24.2.37.29-.5.31-1.03.57-1.58.77l1 1.63a15.4 15.4 0 0 0 4.73-2.4c.38-4.08-.65-7.62-2.8-10.77ZM9.56 14.1c-.93 0-1.69-.87-1.69-1.94 0-1.08.75-1.94 1.69-1.94.94 0 1.7.87 1.69 1.94 0 1.08-.75 1.94-1.69 1.94Zm4.88 0c-.93 0-1.69-.87-1.69-1.94 0-1.08.75-1.94 1.69-1.94.94 0 1.7.87 1.69 1.94 0 1.08-.75 1.94-1.69 1.94Z"/>
</svg>
