<svg xmlns="http://www.w3.org/2000/svg" viewBox="0 0 24 24" fill="#ffffff" aria-hidden="true">
  <path d="M12 .5C5.65.5.5 5.65.5 12c0 5.08 3.29 9.4 7.86 10.93.58.11.79-.25.79-.56 0-.27-.01-1.18-.02-2.14-3.2.7-3.88-1.36-3.88-1.36-.52-1.33-1.28-1.68-1.28-1.68-1.05-.72.08-.7.08-.7 1.16.08 1.77 1.19 1.77 1.19 1.03 1.76 2.7 1.25 3.36.96.1-.75.4-1.25.72-1.53-2.55-.29-5.24-1.27-5.24-5.67 0-1.25.45-2.27 1.18-3.08-.12-.29-.51-1.45.11-3.02 0 0 .96-.31 3.15 1.18a10.9 10.9 0 0 1 5.74 0c2.19-1.49 3.15-1.18 3.15-1.18.62 1.57.23 2.73.11 3.02.74.81 1.18 1.83 1.18 3.08 0 4.41-2.69 5.38-5.25 5.66.41.35.78 1.05.78 2.11 0 1.52-.01 2.74-.01 3.11 0 .31.21.68.8.56A11.52 11.52 0 0 0 23.5 12c0-6.35-5.15-11.5-11.5-11.5Z"/>
</svg>
